<svg id="visual" viewBox="0 0 960 540" width="960" height="540" xmlns="http://www.w3.org/2000/svg" xmlns:xlink="http://www.w3.org/1999/xlink" version="1.1"><rect x="0" y="0" width="960" height="540" fill="#002233"></rect><path d="M0 456L22.8 458C45.7 460 91.3 464 137 444.2C182.7 424.3 228.3 380.7 274 375C319.7 369.3 365.3 401.7 411.2 420.3C457 439 503 444 548.8 430.5C594.7 417 640.3 385 686 383.5C731.7 382 777.3 411 823 430C868.7 449 914.3 458 937.2 462.5L960 467L960 541L937.2 541C914.3 541 868.7 541 823 541C777.3 541 731.7 541 686 541C640.3 541 594.7 541 548.8 541C503 541 457 541 411.2 541C365.3 541 319.7 541 274 541C228.3 541 182.7 541 137 541C91.3 541 45.7 541 22.8 541L0 541Z" fill="#0066FF" stroke-linecap="round" stroke-linejoin="miter"></path></svg>