<svg id="visual" viewBox="0 0 960 540" width="960" height="540" xmlns="http://www.w3.org/2000/svg"
    xmlns:xlink="http://www.w3.org/1999/xlink" version="1.1">
    <path
        d="M0 356L22.8 361C45.7 366 91.3 376 137 384.3C182.7 392.7 228.3 399.3 274 399.8C319.7 400.3 365.3 394.7 411.2 384.3C457 374 503 359 548.8 369.5C594.7 380 640.3 416 686 419.2C731.7 422.3 777.3 392.7 823 377.5C868.7 362.3 914.3 361.7 937.2 361.3L960 361L960 541L937.2 541C914.3 541 868.7 541 823 541C777.3 541 731.7 541 686 541C640.3 541 594.7 541 548.8 541C503 541 457 541 411.2 541C365.3 541 319.7 541 274 541C228.3 541 182.7 541 137 541C91.3 541 45.7 541 22.8 541L0 541Z"
        fill="#0066FF" stroke-linecap="round" stroke-linejoin="miter"></path>
</svg>